<svg xmlns="http://www.w3.org/2000/svg" xmlns:xlink="http://www.w3.org/1999/xlink" fill="none" version="1.1" width="24.000001907348633" height="24.000001907348633" viewBox="0 0 24.000001907348633 24.000001907348633"><defs><clipPath id="master_svg0_99_38802"><rect x="0" y="0" width="24.000001907348633" height="24.000001907348633" rx="5.333333492279053"/></clipPath><clipPath id="master_svg1_99_38802/86_04590"><rect x="3.200000286102295" y="3.200000286102295" width="17.600000381469727" height="17.600000381469727" rx="0"/></clipPath></defs><g clip-path="url(#master_svg0_99_38802)"><rect x="0" y="0" width="24.000001907348633" height="24.000001907348633" rx="5.333333492279053" fill="#111113" fill-opacity="1"/><g clip-path="url(#master_svg1_99_38802/86_04590)"><g><path d="M19.04000972366333,13.394640393829345L19.04000972366333,10.951430393829344C19.04000972366333,9.563360393829345,18.436009723663332,8.449430393829346,17.38460972366333,7.894940393829346L11.95419972366333,5.031540393829346L11.92696972366333,5.083523493829346L11.89974972366333,5.1355063938293455C12.91155972366333,5.668952393829346,13.49203972366333,6.745130393829346,13.49203972366333,8.088020393829346L13.49203972366333,10.531230393829347C13.49203972366333,10.604870393829346,13.490179723663331,10.682230393829347,13.48646972366333,10.759590393829345C13.48584972366333,10.774440393829344,13.484609723663329,10.789290393829345,13.48336972366333,10.804760393829346L13.480899723663331,10.841270393829346C13.477799723663331,10.890160393829346,13.47470972366333,10.939670393829346,13.46975972366333,10.988560393829346C13.46789972366333,11.008360393829346,13.46542972366333,11.028780393829345,13.46294972366333,11.048590393829347L13.45737972366333,11.095000393829345C13.452429723663329,11.135840393829346,13.44809972366333,11.176070393829345,13.44190972366333,11.216910393829345C13.438819723663329,11.239810393829345,13.43510972366333,11.262090393829347,13.43138972366333,11.284990393829347L13.42581972366333,11.320260393829345C13.419019723663329,11.361720393829346,13.41220972366333,11.403190393829345,13.40415972366333,11.444650393829345C13.392399723663331,11.506530393829346,13.38002972366333,11.567800393829346,13.366409723663331,11.629070393829345L13.36207972366333,11.647010393829346C13.34846972366333,11.706420393829346,13.33360972366333,11.765210393829346,13.317519723663331,11.824000393829346L13.30328972366333,11.875990393829346C13.28657972366333,11.935400393829346,13.26924972366333,11.994800393829346,13.25068972366333,12.054210393829345L13.23397972366333,12.105580393829346C13.212939723663329,12.170560393829346,13.19065972366333,12.235530393829347,13.167139723663329,12.299890393829346C13.160949723663329,12.317220393829345,13.15414972366333,12.333930393829345,13.147339723663329,12.351260393829346L13.13681972366333,12.379110393829347C13.117629723663331,12.428620393829345,13.098449723663329,12.478740393829344,13.078029723663331,12.528250393829346C13.06626972366333,12.557340393829346,13.05327972366333,12.586420393829346,13.04089972366333,12.615510393829346L13.03656972366333,12.626030393829346C13.02047972366333,12.663780393829345,13.00376972366333,12.701530393829346,12.98643972366333,12.738660393829345C12.97158972366333,12.772080393829345,12.95549972366333,12.804880393829347,12.94002972366333,12.837670393829345C12.92207972366333,12.874810393829346,12.904749723663329,12.911320393829346,12.88618972366333,12.947830393829346C12.86885972366333,12.981870393829347,12.85152972366333,13.015280393829347,12.83357972366333,13.048700393829346C12.816259723663329,13.081500393829346,12.79830972366333,13.114920393829346,12.78035972366333,13.147720393829346C12.76179972366333,13.181130393829346,12.74260972366333,13.214550393829345,12.72342972366333,13.247970393829346C12.70485972366333,13.280150393829345,12.68629972366333,13.312950393829345,12.66649972366333,13.344510393829346C12.64668972366333,13.377930393829345,12.62626972366333,13.410730393829345,12.60522972366333,13.443530393829345C12.58542972366333,13.475090393829346,12.56623972366333,13.506030393829345,12.54581972366333,13.536970393829346C12.524779723663329,13.569770393829346,12.50311972366333,13.601330393829345,12.47836972366333,13.638460393829346C12.458559723663331,13.667550393829346,12.438759723663331,13.696630393829345,12.418959723663331,13.725100393829345C12.39791972366333,13.754800393829345,12.376879723663329,13.783890393829346,12.35211972366333,13.817930393829347C12.32921972366333,13.849490393829345,12.30632972366333,13.880430393829347,12.28280972366333,13.911370393829346C12.25990972366333,13.941700393829345,12.23701972366333,13.970780393829346,12.213499723663329,14.000490393829345C12.18936972366333,14.030810393829345,12.16522972366333,14.061750393829346,12.141089723663331,14.091460393829346C12.12004972366333,14.117450393829346,12.098389723663331,14.142820393829346,12.07673972366333,14.168190393829345L12.072399723663331,14.173150393829346C12.04393972366333,14.207180393829345,12.01484972366333,14.240600393829345,11.98514972366333,14.274020393829346C11.96162972366333,14.300630393829346,11.938109723663331,14.326620393829346,11.91459972366333,14.352610393829346C11.884889723663331,14.385410393829346,11.85518972366333,14.416970393829345,11.82485972366333,14.449150393829346C11.80196972366333,14.473290393829346,11.77844972366333,14.496800393829346,11.75492972366333,14.520940393829346C11.71470972366333,14.561780393829345,11.67386972366333,14.601390393829346,11.63239972366333,14.641000393829346L11.61445972366333,14.658320393829346C11.59959972366333,14.672560393829345,11.58536972366333,14.686170393829345,11.570519723663331,14.700400393829346C11.518529723663331,14.748670393829345,11.46592972366333,14.795710393829346,11.41208972366333,14.842120393829346L11.39723972366333,14.855120393829345C11.39166972366333,14.860070393829346,11.38547972366333,14.865640393829345,11.37990972366333,14.870590393829346L11.35453972366333,14.891630393829345C11.31059972366333,14.928760393829346,11.266049723663329,14.964650393829345,11.22148972366333,15.000540393829345C11.207869723663329,15.011680393829346,11.193639723663331,15.022200393829346,11.17940972366333,15.033340393829345L11.16888972366333,15.041340393829346C11.131139723663331,15.070440393829346,11.09338972366333,15.098940393829345,11.05191972366333,15.129240393829345C11.03459972366333,15.141640393829345,11.01788972366333,15.154640393829347,11.00055972366333,15.167040393829346C10.95661972366333,15.198540393829346,10.91267972366333,15.228940393829346,10.86812972366333,15.258640393829346L10.833469723663331,15.282740393829346C10.77529972366333,15.321140393829346,10.71650972366333,15.358240393829346,10.657099723663329,15.394140393829346L10.61934972366333,15.416440393829346C10.57231972366333,15.444240393829345,10.525289723663331,15.471440393829345,10.47763972366333,15.498140393829345C10.46339972366333,15.506140393829346,10.44916972366333,15.513540393829345,10.43492972366333,15.521040393829345L10.41265972366333,15.532740393829346C10.37304972366333,15.553840393829345,10.33405972366333,15.574240393829346,10.29445972366333,15.594640393829346C10.27279972366333,15.605140393829346,10.25113972366333,15.615640393829345,10.22947972366333,15.626240393829345L10.22204972366333,15.629940393829346C10.18367972366333,15.648440393829345,10.145929723663329,15.665840393829345,10.10694972366333,15.683140393829346C10.08218972366333,15.694240393829345,10.05743972366333,15.705440393829345,10.03205972366333,15.715940393829346C9.99307972366333,15.732640393829346,9.95346972366333,15.748740393829346,9.91447972366333,15.764240393829345L9.893439723663331,15.772240393829346C9.87611972366333,15.779040393829346,9.85878972366333,15.785840393829346,9.84145972366333,15.792640393829346C9.79875972366333,15.808740393829346,9.75543972366333,15.823640393829345,9.71211972366333,15.838440393829346L9.68860972366333,15.846540393829345C9.67560972366333,15.850840393829346,9.66260972366333,15.855840393829345,9.64961972366333,15.860140393829345C9.58092972366333,15.882440393829345,9.51718972366333,15.901540393829345,9.45529972366333,15.918940393829345L9.07594972366333,16.022840393829348C9.01962972366333,16.038340393829344,8.96331972366333,16.052540393829346,8.90761972366333,16.065540393829345C8.897099723663331,16.068040393829346,8.887199723663329,16.069940393829345,8.87667972366333,16.071740393829344L8.834599723663331,16.080440393829345C8.80303972366333,16.087240393829347,8.77208972366333,16.094040393829346,8.74052972366333,16.099640393829347C8.72753972366333,16.102140393829345,8.71391972366333,16.103940393829347,8.70092972366333,16.106440393829345L8.65017972366333,16.115040393829346C8.62542972366333,16.119440393829343,8.60066972366333,16.123740393829344,8.575919723663329,16.126840393829347C8.56168972366333,16.128740393829347,8.54744972366333,16.130540393829346,8.53321972366333,16.131840393829346L8.48184972366333,16.137940393829346C8.45895972366333,16.141040393829346,8.43605972366333,16.143540393829348,8.41315972366333,16.146040393829345C8.40387972366333,16.146640393829344,8.39459972366333,16.147240393829346,8.385929723663331,16.148540393829347L8.36488972366333,16.150340393829346C8.32899972366333,16.153440393829346,8.29310972366333,16.156540393829346,8.25720972366333,16.158440393829345C8.24359972366333,16.159040393829343,8.23059972366333,16.159640393829346,8.21698972366333,16.159640393829346L8.19717972366333,16.159640393829346C8.16561972366333,16.16154039382935,8.13467972366333,16.162740393829345,8.103739723663331,16.162740393829345C8.08888972366333,16.162740393829345,8.07341972366333,16.162740393829345,8.05855972366333,16.162740393829345L8.03999972366333,16.162740393829345C8.01090972366333,16.162740393829345,7.98120972366333,16.162140393829347,7.95211972366333,16.160840393829346C7.93602972366333,16.160840393829346,7.9199397236633295,16.159640393829346,7.90384972366333,16.158440393829345L7.88775972366333,16.158440393829345C7.8574397236633295,16.155940393829347,7.82772972366333,16.154040393829348,7.79740972366333,16.151640393829346L7.7577997236633305,16.147840393829348C7.72004972366333,16.144140393829346,7.68291972366333,16.140440393829344,7.64516972366333,16.135540393829345L7.62103972366333,16.132440393829345C7.577099723663331,16.126240393829345,7.53315972366333,16.119440393829343,7.48921972366333,16.111340393829344L7.45642972366333,16.105140393829345C7.42919972366333,16.099640393829347,7.40196972366333,16.094040393829346,7.37473972366333,16.087840393829346C7.33203972366333,16.078540393829346,7.28995572366333,16.068040393829346,7.24787372366333,16.056340393829345L7.22992772366333,16.051340393829346C7.22188272366333,16.049540393829346,7.21445672366333,16.047040393829345,7.20641172366333,16.045140393829346C7.15071472366333,16.029040393829348,7.0962567236633305,16.011740393829346,7.04489272366333,15.993840393829347L7.00652372366333,15.979540393829346C6.96877372366333,15.965940393829346,6.9304057236633305,15.951140393829347,6.89327472366333,15.935640393829345C6.87904172366333,15.929440393829346,6.86480772366333,15.923240393829346,6.85057472366333,15.917040393829346L6.84129172366333,15.912740393829345C6.80849272366333,15.898540393829347,6.77631272366333,15.883640393829346,6.74413272366333,15.868140393829346L6.72928072366333,15.860740393829346Q6.72371072366333,15.857640393829346,6.72061672366333,15.856440393829345L6.31650972366333,15.644740393829347L6.60922472366333,15.937440393829347L6.6191257236633305,15.937440393829347L12.036509723663329,18.793440393829346C12.05507972366333,18.803340393829345,12.07363972366333,18.812640393829348,12.09282972366333,18.822540393829346C12.09901972366333,18.825640393829346,12.105199723663329,18.828140393829344,12.11138972366333,18.831240393829347L12.12314972366333,18.836740393829345C12.156569723663331,18.852840393829347,12.18998972366333,18.868340393829346,12.22463972366333,18.883140393829343L12.23453972366333,18.887540393829347C12.249389723663331,18.893740393829347,12.26362972366333,18.900540393829345,12.278479723663331,18.906740393829345C12.31746972366333,18.922840393829347,12.356459723663331,18.937640393829348,12.396059723663331,18.952540393829345L12.40905972366333,18.957440393829344C12.415859723663331,18.959940393829346,12.422049723663331,18.962440393829347,12.42761972366333,18.964840393829345L12.435669723663331,18.967340393829346C12.49012972366333,18.986540393829344,12.547059723663331,19.004440393829345,12.60398972366333,19.020540393829346C12.61265972366333,19.023040393829348,12.62131972366333,19.025540393829345,12.62998972366333,19.027340393829345L12.64668972366333,19.031740393829345C12.69000972366333,19.043440393829346,12.73456972366333,19.054640393829345,12.779129723663331,19.064540393829347L12.78964972366333,19.066940393829345C12.79521972366333,19.068240393829345,12.80016972366333,19.069440393829346,12.80573972366333,19.070740393829347C12.818729723663331,19.073840393829343,12.83234972366333,19.076240393829345,12.84595972366333,19.078740393829346L12.89856972366333,19.088640393829344C12.943739723663331,19.096740393829347,12.98891972366333,19.104140393829347,13.03470972366333,19.110940393829345L13.06007972366333,19.114040393829345C13.098449723663329,19.118940393829348,13.13743972366333,19.123340393829345,13.176429723663329,19.127040393829347L13.252539723663329,19.133840393829345C13.264299723663331,19.134440393829344,13.27605972366333,19.135040393829346,13.28843972366333,19.13564039382935L13.318139723663329,19.136940393829345C13.33794972366333,19.138140393829346,13.35712972366333,19.139440393829346,13.37754972366333,19.140040393829345C13.40539972366333,19.141240393829346,13.43386972366333,19.141240393829346,13.461719723663329,19.141840393829348L13.48522972366333,19.141840393829348C13.49698972366333,19.141840393829348,13.50812972366333,19.141840393829348,13.51988972366333,19.141840393829348C13.52483972366333,19.141840393829348,13.52916972366333,19.141840393829348,13.53411972366333,19.141840393829348C13.56443972366333,19.141840393829348,13.59476972366333,19.140640393829344,13.63127972366333,19.138740393829345L13.65107972366333,19.138740393829345C13.664699723663329,19.137540393829347,13.67892972366333,19.137540393829347,13.693169723663331,19.136340393829343C13.729679723663331,19.134440393829344,13.76680972366333,19.131340393829348,13.80393972366333,19.128240393829344L13.82373972366333,19.12644039382935C13.83363972366333,19.125740393829346,13.84353972366333,19.125140393829348,13.85901972366333,19.123340393829345C13.88067972366333,19.120840393829347,13.90233972366333,19.118340393829346,13.923989723663329,19.115840393829345L13.972879723663329,19.109640393829345C13.988969723663331,19.107840393829346,14.00505972366333,19.105940393829346,14.021159723663331,19.103540393829345C14.047149723663331,19.099740393829343,14.07251972366333,19.095440393829346,14.09850972366333,19.091140393829345L14.14801972366333,19.083040393829346C14.16224972366333,19.080640393829345,14.17647972366333,19.078740393829346,14.19071972366333,19.075640393829346C14.22289972366333,19.069440393829346,14.25507972366333,19.062640393829348,14.287259723663329,19.055840393829346L14.32685972366333,19.047840393829347C14.33861972366333,19.045340393829346,14.35037972366333,19.042840393829344,14.36213972366333,19.040340393829347C14.41968972366333,19.027340393829345,14.47723972366333,19.012540393829347,14.53541972366333,18.996440393829346L14.91476972366333,18.892440393829347C14.97726972366333,18.875140393829348,15.04286972366333,18.855940393829346,15.11403972366333,18.832440393829344C15.12764972366333,18.828140393829344,15.14064972366333,18.823740393829347,15.15363972366333,18.818840393829348L15.17839972366333,18.810140393829347C15.22294972366333,18.794740393829343,15.26750972366333,18.779240393829348,15.31144972366333,18.763140393829346C15.33062972366333,18.756340393829348,15.34919972366333,18.748240393829345,15.36775972366333,18.740840393829345L15.38570972366333,18.733440393829348C15.42592972366333,18.717340393829346,15.46677972366333,18.701240393829345,15.50638972366333,18.683940393829346C15.53175972366333,18.672740393829343,15.55712972366333,18.661640393829344,15.58311972366333,18.650540393829345C15.62272972366333,18.632540393829345,15.66171972366333,18.614640393829347,15.70069972366333,18.596040393829348L15.71369972366333,18.589840393829345C15.73411972366333,18.579940393829347,15.75453972366333,18.570040393829345,15.77496972366333,18.560140393829347C15.81580972366333,18.539740393829348,15.85603972366333,18.518640393829344,15.89625972366333,18.497040393829344L15.91853972366333,18.485240393829343C15.93338972366333,18.477240393829348,15.94823972366333,18.469840393829344,15.96247972366333,18.461740393829345C16.01136972366333,18.435140393829347,16.05901972366333,18.406640393829345,16.107289723663328,18.378240393829344L16.12337972366333,18.368940393829348C16.13079972366333,18.364640393829347,16.13822972366333,18.360240393829343,16.14626972366333,18.355940393829346C16.203829723663333,18.321240393829346,16.26075972366333,18.285340393829344,16.31710972366333,18.248240393829345L16.35610972366333,18.221640393829347L17.548609723663333,18.764940393829345C18.24540972366333,19.082440393829344,19.03750972366333,18.57314039382935,19.03750972366333,17.807040393829347L19.03750972366333,13.393400393829346Q19.03750972366333,13.392780393829346,19.03750972366333,13.392160393829347L19.04000972366333,13.394640393829345Z" fill="#2ADB5C" fill-opacity="1"/></g><g><path d="M11.95730051498413,5.032777864555359C11.93873051498413,5.022876864555359,11.92017051498413,5.013593864555359,11.901600514984132,5.004310864555359C11.89170051498413,4.999360864555359,11.88118051498413,4.995028864555358,11.87128051498413,4.990077864555359C11.837860514984131,4.973987864555359,11.804450514984131,4.958516864555359,11.77103051498413,4.943663864555359C11.75308051498413,4.935618864555359,11.735750514984131,4.928192864555359,11.71719051498413,4.920147864555359C11.678820514984132,4.904057864555359,11.63983051498413,4.889205864555359,11.60023051498413,4.874971864555359C11.58971051498413,4.871258864555359,11.579180514984131,4.866307864555359,11.568050514984131,4.8625948645553585C11.565570514984131,4.861975864555359,11.563100514984132,4.860738864555359,11.56062051498413,4.860119864555359C11.50554051498413,4.840935864555359,11.449850514984131,4.8229888645553585,11.393530514984132,4.806898864555359C11.37930051498413,4.8025668645553585,11.36506051498413,4.799472864555359,11.350830514984132,4.795759864555359C11.30751051498413,4.784001664555359,11.263570514984131,4.772862364555359,11.21963051498413,4.763579664555359C11.210350514984132,4.761723164555359,11.201690514984131,4.758628964555359,11.19302051498413,4.756772364555359C11.173840514984132,4.752440464555359,11.15466051498413,4.749346264555359,11.135470514984132,4.745633164555359C11.12433051498413,4.743157764555359,11.112580514984131,4.741301264555359,11.10144051498413,4.738825864555359C11.05688051498413,4.730780864555359,11.011700514984131,4.723354664555359,10.965910514984131,4.717166164555359C10.95724051498413,4.7159284645553585,10.94858051498413,4.715309664555359,10.93992051498413,4.714071964555359C10.90155051498413,4.709121164555359,10.863800514984131,4.704789264555359,10.824810514984131,4.701076164555359C10.811200514984131,4.699838464555359,10.79758051498413,4.6986007645553585,10.78397051498413,4.697363064555359C10.772210514984131,4.6961253945553585,10.76045051498413,4.6948877045553585,10.74869051498413,4.694268854555359C10.729510514984131,4.693031164555359,10.710320514984131,4.692412314555359,10.69114051498413,4.691174624555359C10.66886051498413,4.689936924555359,10.64658051498413,4.688699234555359,10.624300514984132,4.6880803845553585C10.59460051498413,4.6868426945553585,10.56428051498413,4.6868426945553585,10.53395051498413,4.686223847841359C10.51229051498413,4.686223847841359,10.490010514984132,4.685605000555359,10.468350514984131,4.686223847841359C10.436790514984132,4.686223847841359,10.404610514984132,4.6880803845553585,10.372430514984131,4.688699234555359C10.35201051498413,4.689318084555359,10.33097051498413,4.689936924555359,10.310550514984131,4.691174624555359C10.274040514984131,4.693031164555359,10.236910514984132,4.6961253945553585,10.20039051498413,4.6992196645553586C10.18368051498413,4.7004573645553585,10.16698051498413,4.701695064555359,10.15027051498413,4.702932664555359C10.148410514984132,4.702932664555359,10.146550514984131,4.702932664555359,10.145320514984132,4.702932664555359C10.11561051498413,4.706026964555359,10.08529051498413,4.710358864555359,10.054960514984131,4.714071964555359C10.030830514984132,4.717166164555359,10.00731051498413,4.719641564555359,9.98318051498413,4.722735764555359C9.94914051498413,4.727686564555359,9.915110514984132,4.733875064555359,9.881070514984131,4.739444664555359C9.85879051498413,4.743157764555359,9.83651051498413,4.746251964555359,9.814230514984132,4.750583964555359C9.775860514984132,4.758010064555359,9.736880514984131,4.766055064555359,9.697890514984131,4.774718964555359C9.67932051498413,4.778432064555359,9.661380514984131,4.782145064555359,9.64281051498413,4.786476864555359C9.585260514984132,4.799472864555359,9.52771051498413,4.814324864555359,9.47015051498413,4.830414864555359L9.090800514984132,4.934381864555359C9.023970514984132,4.952946864555359,8.95775051498413,4.972749864555359,8.891530514984131,4.994409864555359C8.86987051498413,5.001216864555359,8.848830514984131,5.009261864555359,8.82717051498413,5.016687864555359C8.782620514984131,5.032158864555359,8.73806051498413,5.047630864555359,8.694120514984132,5.063720864555359C8.66937051498413,5.073002864555359,8.64461051498413,5.082904864555359,8.619240514984131,5.092805864555359C8.57901051498413,5.108895864555359,8.53879051498413,5.1249858645553585,8.498560514984131,5.1423138645553585C8.47319051498413,5.153452864555359,8.44720051498413,5.164592864555359,8.42183051498413,5.175731864555359C8.38222051498413,5.193677864555359,8.343230514984132,5.211624864555359,8.304250514984131,5.230189864555359C8.279490514984131,5.2419478645553585,8.254740514984132,5.253705864555359,8.22999051498413,5.266082864555359C8.189140514984132,5.286504864555359,8.14892051498413,5.307545864555359,8.108690514984131,5.329205864555359C8.08641051498413,5.340963864555359,8.06413051498413,5.352721864555359,8.042470514984132,5.364479864555359C7.993590514984131,5.391089864555359,7.945930514984131,5.419556864555359,7.897660514984131,5.448023864555359C7.884670514984131,5.455450864555359,7.871670514984131,5.4628768645553585,7.8586805149841314,5.470921864555359C7.801120514984131,5.505576864555358,7.7441905149841315,5.5420888645553585,7.68726051498413,5.579219864555359C7.68416051498413,5.581076864555359,7.681070514984131,5.583551864555359,7.677970514984131,5.585407864555359C7.665600514984131,5.593453864555359,7.653840514984131,5.6021168645553585,7.642080514984131,5.610161864555359C7.596290514984131,5.641104864555359,7.551110514984131,5.672046864555359,7.506550514984131,5.704223864555359C7.487990514984131,5.717843864555359,7.469420514984131,5.731453864555359,7.4508605149841305,5.744453864555359C7.41187051498413,5.773533864555359,7.37288051498413,5.802623864555359,7.334510514984131,5.832323864555359C7.3165705149841305,5.845943864555359,7.2986205149841314,5.8601738645553585,7.28129051498413,5.873793864555359C7.235500514984131,5.910303864555359,7.18970051498413,5.947433864555359,7.144530514984131,5.985183864555359C7.135860514984131,5.992613864555359,7.12720051498413,5.999413864555359,7.118540514984131,6.006223864555359C7.116680514984131,6.007463864555358,7.114820514984131,6.009313864555359,7.112970514984131,6.010553864555359C7.103680514984131,6.018603864555359,7.095020514984131,6.0272638645553585,7.085740514984131,6.035313864555359C7.031280514984131,6.082343864555359,6.976820514984131,6.130613864555359,6.924220514984131,6.180123864555359C6.902560514984131,6.199923864555359,6.882140514984131,6.220343864555359,6.860480514984131,6.240763864555359C6.8184005149841305,6.280993864555359,6.776930514984131,6.321833864555359,6.735470514984131,6.363293864555359C6.724330514984131,6.374433864555359,6.713190514984131,6.384953864555359,6.702050514984131,6.396093864555359C6.689060514984131,6.409093864555359,6.677300514984131,6.423323864555359,6.664300514984131,6.436323864555359C6.633360514984131,6.469123864555359,6.60242051498413,6.5019238645553585,6.572090514984131,6.5353338645553585C6.547960514984131,6.561943864555359,6.523820514984131,6.588553864555359,6.499690514984131,6.615173864555359C6.469370514984131,6.649203864555359,6.440280514984131,6.683863864555359,6.410580514984131,6.717893864555359C6.395720514984131,6.735223864555358,6.380870514984131,6.751933864555359,6.36664051498413,6.769263864555359C6.357970514984131,6.779783864555359,6.349310514984131,6.790923864555358,6.340650514984131,6.801443864555359C6.315270514984131,6.832383864555359,6.290520514984131,6.863323864555358,6.266380514984131,6.894883864555359C6.242870514984131,6.925213864555358,6.218730514984131,6.955533864555359,6.195220514984131,6.985853864555359C6.171080514984131,7.017423864555359,6.147570514984131,7.049603864555358,6.1240505149841304,7.081783864555359C6.109200514984131,7.102203864555358,6.093730514984131,7.122003864555358,6.078870514984131,7.143043864555359C6.070830514984131,7.154183864555359,6.064020514984131,7.165323864555359,6.055980514984131,7.176463864555359C6.034320514984131,7.207403864555359,6.013280514984131,7.238963864555359,5.991620514984131,7.269913864555359C5.969340514984131,7.302703864555359,5.947059514984131,7.335503864555359,5.9253995149841305,7.368923864555359C5.904977514984131,7.400483864555358,5.884555514984131,7.432663864555359,5.864752514984131,7.464843864555359C5.851138514984131,7.485883864555358,5.837523514984131,7.506923864555359,5.824527514984131,7.528583864555359C5.817101514984131,7.5409638645553585,5.810294514984131,7.553963864555358,5.802249514984131,7.566333864555359C5.782446514984131,7.599133864555359,5.763261514984131,7.631933864555359,5.744696514984131,7.6653538645553585C5.724893514984131,7.6993938645553595,5.705709514984131,7.733423864555359,5.68652451498413,7.768083864555359C5.667959514984131,7.8014938645553595,5.650012514984131,7.835533864555359,5.632066514984131,7.868953864555358C5.620927514984131,7.889993864555359,5.608550514984131,7.911033864555359,5.59802951498413,7.932693864555359C5.591222514984131,7.945693864555359,5.5856525149841305,7.9586838645553595,5.578845514984131,7.971683864555359C5.559661514984131,8.009433864555358,5.541714514984131,8.04718386455536,5.523149514984131,8.084933864555358C5.507059514984131,8.118343864555358,5.490969514984131,8.15176386455536,5.475498514984131,8.185803864555359C5.458170514984131,8.22417386455536,5.441461514984131,8.262543864555358,5.424752514984131,8.300903864555359C5.4148515149841305,8.323803864555359,5.403711514984131,8.346703864555359,5.394429514984131,8.37022386455536C5.390097514984131,8.380123864555358,5.3863845149841305,8.390643864555358,5.382052514984131,8.40116386455536C5.361011514984131,8.451283864555359,5.341827514984131,8.502033864555358,5.322024514984131,8.553393864555359C5.311503514984131,8.58062386455536,5.3009835149841305,8.607233864555358,5.291081514984131,8.634463864555359C5.266946514984131,8.700063864555359,5.244668514984131,8.766283864555358,5.223008514984131,8.833113864555358C5.219295514984131,8.844253864555359,5.214963514984131,8.85539386455536,5.211250514984131,8.867153864555359C5.211250514984131,8.868393864555358,5.210631514984131,8.87024386455536,5.210012514984131,8.871483864555358C5.208156514984131,8.87643386455536,5.206918514984131,8.882003864555358,5.205062514984131,8.886953864555359C5.1858775149841305,8.947603864555358,5.168550514984131,9.008253864555359,5.151222514984131,9.06889386455536C5.1462715149841305,9.086843864555359,5.141320514984131,9.10417386455536,5.136989514984131,9.12211386455536C5.120898514984131,9.182143864555359,5.105427514984131,9.24279386455536,5.091813514984131,9.303443864555359C5.090575514984131,9.309623864555359,5.088718514984131,9.31581386455536,5.087481514984131,9.32200386455536C5.0751045149841305,9.375223864555359,5.0639655149841305,9.428443864555359,5.053444714984131,9.48228386455536C5.051588214984131,9.492183864555358,5.050350514984131,9.501473864555358,5.048493914984131,9.51137386455536C5.039830114984131,9.55593386455536,5.0330227149841305,9.600483864555358,5.0255966149841305,9.64566386455536C5.020027014984131,9.678463864555358,5.0144573149841305,9.71188386455536,5.009506614984131,9.74467386455536C5.002699314984131,9.791713864555359,4.9977485149841305,9.838743864555358,4.992178914984131,9.88577386455536C4.9884658149841306,9.916713864555359,4.984133914984131,9.94766386455536,4.981658514984131,9.978603864555359C4.976707714984131,10.030583864555359,4.972994614984131,10.083183864555359,4.969900394984131,10.135793864555358C4.968043854984131,10.161783864555359,4.9655684649841305,10.18715386455536,4.964330774984131,10.21314386455536C4.961857054984131,10.289263864555359,4.960000514984131,10.367853864555359,4.960000514984131,10.44583386455536L4.960000514984131,12.889043864555358C4.960000514984131,13.779563864555358,5.212490514984131,14.540123864555358,5.645682514984131,15.113223864555358C5.689002514984131,15.17072386455536,5.734177514984131,15.225823864555359,5.780591514984131,15.27962386455536C5.851139514984131,15.360123864555359,5.92478251498413,15.436223864555359,6.00276051498413,15.507423864555358C6.184080514984131,15.67382386455536,6.385820514984131,15.81622386455536,6.604280514984131,15.93132386455536L12.03466051498413,18.79412386455536C11.03708051498413,18.26802386455536,10.391000514984132,17.17702386455536,10.39038051498413,15.751823864555359L10.39038051498413,13.308613864555358C10.39038051498413,13.23064386455536,10.392240514984131,13.15205386455536,10.395950514984131,13.07407386455536C10.397190514984132,13.048083864555359,10.39966051498413,13.022713864555358,10.401520514984131,12.996713864555359C10.40523051498413,12.944113864555359,10.408330514984131,12.892133864555358,10.41328051498413,12.839533864555358C10.41637051498413,12.80858386455536,10.42070051498413,12.777643864555358,10.42380051498413,12.746703864555359C10.42937051498413,12.69967386455536,10.43432051498413,12.652643864555358,10.441130514984131,12.60560386455536C10.446080514984132,12.572813864555359,10.45165051498413,12.53939386455536,10.457220514984131,12.50659386455536C10.464640514984131,12.462033864555359,10.47207051498413,12.41686386455536,10.48011051498413,12.37230386455536C10.49187051498413,12.309183864555358,10.50487051498413,12.246053864555359,10.519100514984132,12.183553864555359C10.520340514984131,12.177363864555359,10.522190514984132,12.17117386455536,10.523430514984131,12.16499386455536C10.537670514984132,12.104343864555359,10.552520514984131,12.043693864555358,10.56861051498413,11.983663864555359C10.57356051498413,11.966343864555359,10.57789051498413,11.94839386455536,10.582840514984131,11.931063864555359C10.59955051498413,11.87041386455536,10.61750051498413,11.809153864555359,10.636680514984132,11.749123864555358C10.63854051498413,11.744173864555359,10.639780514984132,11.738603864555358,10.641630514984131,11.73365386455536C10.64535051498413,11.721273864555359,10.650300514984131,11.708283864555359,10.654630514984131,11.695903864555358C10.676290514984132,11.629683864555359,10.69857051498413,11.562853864555358,10.72270051498413,11.497253864555358C10.732600514984131,11.470023864555358,10.743120514984131,11.443413864555358,10.75364051498413,11.416183864555359C10.77283051498413,11.36543386455536,10.79263051498413,11.314693864555359,10.813670514984132,11.263943864555358C10.827290514984131,11.230533864555358,10.84214051498413,11.197113864555359,10.856370514984132,11.164313864555359C10.873080514984132,11.12594386455536,10.889790514984131,11.08757386455536,10.90712051498413,11.04920386455536C10.92259051498413,11.015173864555358,10.938680514984132,10.981753864555358,10.95477051498413,10.948333864555359C10.97272051498413,10.91058386455536,10.99128051498413,10.872833864555359,11.010470514984132,10.835083864555358C11.02779051498413,10.800433864555359,11.045740514984132,10.766393864555358,11.063690514984131,10.731743864555359C11.08163051498413,10.697703864555358,11.09958051498413,10.664283864555358,11.11814051498413,10.630863864555359C11.137330514984132,10.59621386455536,11.15651051498413,10.562173864555358,11.17632051498413,10.528143864555359C11.195500514984131,10.495343864555359,11.214690514984131,10.46192386455536,11.23387051498413,10.429123864555358C11.254290514984131,10.395083864555358,11.27533051498413,10.361673864555359,11.29637051498413,10.328253864555359C11.316180514984131,10.296073864555359,11.33660051498413,10.264513864555358,11.357020514984132,10.232333864555358C11.378680514984131,10.198913864555358,11.400960514984131,10.16611386455536,11.42324051498413,10.133313864555358C11.444280514984131,10.10175386455536,11.465320514984132,10.070813864555358,11.48760051498413,10.039873864555359C11.50988051498413,10.008303864555359,11.532770514984131,9.97674386455536,11.555670514984131,9.945803864555359C11.57919051498413,9.913623864555358,11.60270051498413,9.881443864555358,11.626840514984131,9.849883864555359C11.65035051498413,9.818943864555358,11.67387051498413,9.78923386455536,11.69800051498413,9.758913864555359C11.722760514984131,9.72797386455536,11.747510514984132,9.696403864555359,11.77227051498413,9.66546386455536C11.795160514984131,9.637613864555359,11.81868051498413,9.609773864555358,11.84219051498413,9.581923864555359C11.87190051498413,9.547263864555358,11.90099051498413,9.512613864555359,11.93131051498413,9.478573864555358C11.954820514984132,9.45196386455536,11.97896051498413,9.425353864555358,12.00310051498413,9.398743864555358C12.03342051498413,9.365323864555359,12.06436051498413,9.332523864555359,12.095310514984131,9.299723864555359C12.118820514984131,9.27497386455536,12.14234051498413,9.250833864555359,12.16647051498413,9.226703864555358C12.207320514984131,9.185243864555359,12.249400514984131,9.144393864555358,12.29148051498413,9.10417386455536C12.312520514984131,9.083753864555359,12.333560514984132,9.06332386455536,12.355220514984131,9.04352386455536C12.40844051498413,8.99401386455536,12.46228051498413,8.945743864555359,12.51674051498413,8.898713864555358C12.52788051498413,8.88943386455536,12.538400514984131,8.878913864555358,12.54954051498413,8.86963386455536C12.558200514984131,8.862203864555358,12.566860514984132,8.85539386455536,12.57553051498413,8.848583864555359C12.62071051498413,8.810843864555359,12.665880514984131,8.773703864555358,12.71230051498413,8.737193864555358C12.730240514984132,8.722963864555359,12.748190514984131,8.709343864555358,12.76613051498413,8.695733864555358C12.80450051498413,8.66602386455536,12.843490514984131,8.636323864555358,12.882480514984131,8.60785386455536C12.901040514984132,8.59424386455536,12.91961051498413,8.58062386455536,12.938170514984131,8.56701386455536C12.98273051498413,8.53483386455536,13.02852051498413,8.503273864555359,13.07370051498413,8.47295386455536C13.085460514984131,8.464903864555358,13.09722051498413,8.45624386455536,13.10959051498413,8.448813864555358C13.16900051498413,8.409203864555359,13.229030514984132,8.37145386455536,13.28968051498413,8.334323864555358C13.302670514984131,8.326903864555359,13.31567051498413,8.31947386455536,13.328040514984131,8.31204386455536C13.376320514984132,8.283583864555359,13.42459051498413,8.255113864555359,13.47348051498413,8.228503864555359C13.495140514984131,8.216123864555358,13.517410514984132,8.20498386455536,13.53969051498413,8.19323386455536C13.579920514984131,8.17157386455536,13.62076051498413,8.150533864555358,13.661610514984131,8.130103864555359C13.68636051498413,8.117733864555358,13.71049051498413,8.10597386455536,13.73525051498413,8.094213864555359C13.77424051498413,8.07565386455536,13.81384051498413,8.05708386455536,13.85345051498413,8.039133864555358C13.878820514984131,8.02799386455536,13.904190514984132,8.016853864555358,13.92957051498413,8.005723864555359C13.969790514984131,7.988393864555359,14.01002051498413,7.972303864555359,14.05086051498413,7.956213864555359C14.075610514984131,7.946313864555359,14.100370514984132,7.936403864555359,14.12512051498413,7.927123864555359C14.16906051498413,7.910413864555359,14.21362051498413,7.8949438645553585,14.258170514984132,7.880093864555359C14.27983051498413,7.872663864555359,14.300870514984132,7.865243864555358,14.32253051498413,7.857813864555359C14.388750514984132,7.836153864555358,14.454970514984131,7.816353864555358,14.52180051498413,7.797783864555359L14.90116051498413,7.693823864555359C14.959330514984131,7.677733864555359,15.016900514984131,7.663493864555359,15.07380051498413,7.650503864555359C15.09360051498413,7.646173864555359,15.11280051498413,7.642453864555359,15.132000514984131,7.638123864555359C15.16970051498413,7.630083864555359,15.207500514984131,7.621413864555359,15.24460051498413,7.6146038645553595C15.26750051498413,7.610273864555358,15.29040051498413,7.607183864555359,15.313300514984132,7.6034638645553585C15.34670051498413,7.597903864555359,15.38010051498413,7.591713864555359,15.41360051498413,7.586763864555358C15.437700514984131,7.583043864555359,15.46180051498413,7.581193864555359,15.48600051498413,7.578093864555359C15.51750051498413,7.574383864555359,15.549100514984131,7.570053864555359,15.58060051498413,7.566953864555359C15.59740051498413,7.565103864555359,15.61340051498413,7.564483864555359,15.63020051498413,7.563243864555359C15.667300514984131,7.5601538645553585,15.704400514984131,7.557053864555359,15.740900514984132,7.555193864555359C15.76140051498413,7.553963864555358,15.78180051498413,7.553963864555358,15.802200514984131,7.552723864555359C15.83440051498413,7.551483864555359,15.86660051498413,7.550243864555359,15.898700514984132,7.549623864555359C15.921000514984131,7.549623864555359,15.94270051498413,7.549623864555359,15.964300514984131,7.549623864555359C15.994700514984132,7.549623864555359,16.02500051498413,7.549623864555359,16.05470051498413,7.551483864555359C16.07700051498413,7.5521038645553595,16.099200514984133,7.553343864555359,16.12150051498413,7.554583864555359C16.152500514984133,7.556433864555359,16.18340051498413,7.558293864555359,16.213700514984133,7.5607638645553585C16.22730051498413,7.562003864555359,16.24100051498413,7.563243864555359,16.254600514984133,7.564483864555359C16.292900514984133,7.568193864555359,16.33130051498413,7.572523864555359,16.36970051498413,7.577473864555358C16.378300514984133,7.578713864555359,16.38700051498413,7.579333864555359,16.39570051498413,7.580573864555359C16.44150051498413,7.586763864555358,16.486600514984133,7.594183864555359,16.53120051498413,7.602233864555359C16.54230051498413,7.604083864555359,16.55410051498413,7.606563864555358,16.56520051498413,7.609033864555359C16.59370051498413,7.6146038645553595,16.62160051498413,7.620793864555359,16.65000051498413,7.626983864555359C16.694000514984133,7.636883864555359,16.737900514984133,7.648023864555359,16.78120051498413,7.659163864555358C16.79540051498413,7.662873864555358,16.80970051498413,7.6665938645553595,16.823900514984132,7.670303864555359C16.880200514984132,7.686393864555359,16.93590051498413,7.703723864555359,16.99100051498413,7.722903864555359C17.004600514984133,7.7278538645553585,17.01760051498413,7.732803864555359,17.03120051498413,7.7377538645553585C17.07020051498413,7.751993864555359,17.10920051498413,7.766843864555359,17.14760051498413,7.782933864555359C17.16550051498413,7.790363864555359,17.183500514984132,7.798403864555359,17.20140051498413,7.806453864555358C17.23540051498413,7.821303864555359,17.268900514984132,7.836773864555359,17.30170051498413,7.852863864555359C17.33070051498413,7.867093864555359,17.35920051498413,7.880713864555359,17.387700514984132,7.895563864555359L11.95730051498413,5.032777864555359Z" fill="#FFFFFF" fill-opacity="1" style="mix-blend-mode:passthrough"/></g></g></g></svg>